<svg width="60" height="60" viewBox="0 0 60 60" fill="none" xmlns="http://www.w3.org/2000/svg">
<rect opacity="0.1" width="60" height="60" rx="30" fill="#5B93FF"/>
<path fill-rule="evenodd" clip-rule="evenodd" d="M33.8498 20.5007C34.4808 20.5007 35.1108 20.5897 35.7098 20.7907C39.4008 21.9907 40.7308 26.0407 39.6198 29.5807C38.9898 31.3897 37.9598 33.0407 36.6108 34.3897C34.6798 36.2597 32.5608 37.9197 30.2798 39.3497L30.0298 39.5007L29.7698 39.3397C27.4808 37.9197 25.3498 36.2597 23.4008 34.3797C22.0608 33.0307 21.0298 31.3897 20.3898 29.5807C19.2598 26.0407 20.5898 21.9907 24.3208 20.7697C24.6108 20.6697 24.9098 20.5997 25.2098 20.5607H25.3298C25.6108 20.5197 25.8898 20.5007 26.1698 20.5007H26.2798C26.9098 20.5197 27.5198 20.6297 28.1108 20.8307H28.1698C28.2098 20.8497 28.2398 20.8707 28.2598 20.8897C28.4808 20.9607 28.6898 21.0407 28.8898 21.1507L29.2698 21.3207C29.3616 21.3697 29.4647 21.4445 29.5538 21.5092C29.6102 21.5502 29.661 21.587 29.6998 21.6107C29.7161 21.6203 29.7327 21.63 29.7494 21.6398C29.8352 21.6898 29.9245 21.742 29.9998 21.7997C31.1108 20.9507 32.4598 20.4907 33.8498 20.5007ZM36.5098 27.7007C36.9198 27.6897 37.2698 27.3607 37.2998 26.9397V26.8207C37.3298 25.4197 36.4808 24.1507 35.1898 23.6607C34.7798 23.5197 34.3298 23.7407 34.1798 24.1607C34.0398 24.5807 34.2598 25.0407 34.6798 25.1897C35.3208 25.4297 35.7498 26.0607 35.7498 26.7597V26.7907C35.7308 27.0197 35.7998 27.2407 35.9398 27.4107C36.0798 27.5807 36.2898 27.6797 36.5098 27.7007Z" fill="#5B93FF"/>
</svg>
